<?xml version="1.0" encoding="utf-8"?>
<!-- Generator: Adobe Illustrator 19.0.0, SVG Export Plug-In . SVG Version: 6.00 Build 0)  -->
<svg version="1.1" xmlns="http://www.w3.org/2000/svg" xmlns:xlink="http://www.w3.org/1999/xlink" x="0px" y="0px"
	 viewBox="0 0 32 32" style="enable-background:new 0 0 32 32;" xml:space="preserve">
<style type="text/css">
	.st0{display:none;}
	.st1{display:inline;}
	.st2{clip-path:url(#XMLID_46_);}
	.st3{fill:#FFFFFF;}
	.st4{fill:#5E64AD;}
	.st5{fill:#DDE051;}
	.st6{fill:#845CA6;}
	.st7{fill:#6EC283;}
	.st8{fill:#EA5FA3;}
</style>
<g id="Ruler" class="st0">
	<g id="XMLID_1_" class="st1">
		<defs>
			<rect id="XMLID_3_" width="32" height="32"/>
		</defs>
		<clipPath id="XMLID_46_">
			<use xlink:href="#XMLID_3_"  style="overflow:visible;"/>
		</clipPath>
		<g id="XMLID_2_" class="st2">
			<g id="XMLID_40_">
				<rect id="XMLID_5_" class="st3" width="32" height="32"/>
			</g>
			<g id="XMLID_38_">
				
					<rect id="XMLID_16_" x="-6.6" y="15.9" transform="matrix(0.7071 0.7071 -0.7071 0.7071 15.9844 -6.6651)" class="st4" width="45.3" height="0.1"/>
			</g>
			<g id="XMLID_36_">
				
					<rect id="XMLID_15_" x="15.9" y="-6.7" transform="matrix(0.7071 0.7071 -0.7071 0.7071 15.9623 -6.6118)" class="st4" width="0.1" height="45.3"/>
			</g>
			<g id="XMLID_32_">
				<path id="XMLID_12_" class="st5" d="M16,30.1C8.3,30.1,1.9,23.7,1.9,16C1.9,8.3,8.3,1.9,16,1.9c7.7,0,14.1,6.3,14.1,14.1
					C30.1,23.7,23.7,30.1,16,30.1z M16,2.1C8.3,2.1,2.1,8.3,2.1,16S8.3,29.9,16,29.9S29.9,23.7,29.9,16S23.7,2.1,16,2.1z"/>
			</g>
			<g id="XMLID_28_">
				<path id="XMLID_9_" class="st6" d="M29.1,29.1H2.9V2.9h26.1V29.1z M3.1,28.9h25.9V3.1H3.1V28.9z"/>
			</g>
			<g id="XMLID_24_">
				<path id="XMLID_6_" class="st7" d="M30.1,28.1H1.9V3.9h28.1V28.1z M2.1,27.9h27.9V4.1H2.1V27.9z"/>
			</g>
			<g id="XMLID_20_">
				<path id="XMLID_17_" class="st8" d="M28.1,30.1H3.9V1.9h24.1V30.1z M4.1,29.9h23.9V2.1H4.1V29.9z"/>
			</g>
		</g>
	</g>
</g>
<g id="Icon">
	<g id="XMLID_4_">
		<path id="XMLID_43_" d="M15.8,29.8c-5.4,0-9.8-4.4-9.8-9.8c0-5.4,4.4-9.8,9.8-9.8c5.4,0,9.8,4.4,9.8,9.8
			C25.5,25.4,21.1,29.8,15.8,29.8z M15.8,12.3c-4.3,0-7.7,3.5-7.7,7.7c0,4.3,3.5,7.7,7.7,7.7c4.3,0,7.7-3.5,7.7-7.7
			C23.5,15.8,20,12.3,15.8,12.3z"/>
	</g>
	<g id="XMLID_21_">
		<path id="XMLID_41_" d="M15.8,12c-0.1,0-0.2,0-0.4-0.1c-0.5-0.2-0.8-0.8-0.6-1.3c0.3-0.9,1.4-3.1,3.7-3.8c0.4-0.1,0.9-0.2,1.4-0.2
			c0.6,0,1,0.4,1,1c0,0.6-0.4,1-1,1c-0.3,0-0.6,0-0.8,0.1c-1.5,0.5-2.2,2.1-2.4,2.6C16.5,11.7,16.2,12,15.8,12z"/>
	</g>
	<g id="XMLID_23_">
		<path id="XMLID_39_" d="M17.6,6.4c-0.3,0-0.6-0.2-0.8-0.4l-1.6-2.2c-0.3-0.5-0.2-1.1,0.3-1.4c0.5-0.3,1.1-0.2,1.4,0.3l1.6,2.2
			c0.3,0.5,0.2,1.1-0.3,1.4C18,6.4,17.8,6.4,17.6,6.4z"/>
	</g>
	<g id="XMLID_22_">
		<path id="XMLID_37_" d="M20.8,6.1c-0.1,0-0.3,0-0.4-0.1c-0.5-0.2-0.8-0.8-0.5-1.3L21,2.1c0.2-0.5,0.8-0.8,1.3-0.5
			c0.5,0.2,0.8,0.8,0.5,1.3l-1.1,2.5C21.6,5.8,21.2,6.1,20.8,6.1z"/>
	</g>
	<g id="XMLID_25_">
		<path id="XMLID_35_" d="M22.9,7.6c-0.4,0-0.8-0.2-0.9-0.6c-0.2-0.5,0-1.1,0.6-1.3l2.5-1c0.5-0.2,1.1,0,1.3,0.6
			c0.2,0.5,0,1.1-0.6,1.3l-2.5,1C23.1,7.6,23,7.6,22.9,7.6z"/>
	</g>
	<g id="XMLID_26_">
		<path id="XMLID_34_" d="M24.6,11.8c-0.2,0-0.4-0.1-0.6-0.2l-2.2-1.6c-0.5-0.3-0.5-1-0.2-1.4c0.3-0.4,1-0.5,1.4-0.2l2.2,1.6
			c0.5,0.3,0.5,1,0.2,1.4C25.2,11.6,24.9,11.8,24.6,11.8z"/>
	</g>
	<g id="XMLID_29_">
		<path id="XMLID_33_" d="M18.5,23.9c-0.3,0-0.5-0.1-0.7-0.3L12,17.8c-0.4-0.4-0.4-1,0-1.4c0.4-0.4,1-0.4,1.4,0l5.8,5.8
			c0.4,0.4,0.4,1,0,1.4C19,23.8,18.7,23.9,18.5,23.9z"/>
	</g>
	<g id="XMLID_27_">
		<path id="XMLID_31_" d="M12.7,23.9c-0.3,0-0.5-0.1-0.7-0.3c-0.4-0.4-0.4-1,0-1.4l5.8-5.8c0.4-0.4,1-0.4,1.4,0s0.4,1,0,1.4
			l-5.8,5.8C13.2,23.8,13,23.9,12.7,23.9z"/>
	</g>
</g>
</svg>
