<?xml version="1.0" encoding="utf-8"?>
<!-- Generator: Adobe Illustrator 19.0.0, SVG Export Plug-In . SVG Version: 6.00 Build 0)  -->
<svg version="1.1" xmlns="http://www.w3.org/2000/svg" xmlns:xlink="http://www.w3.org/1999/xlink" x="0px" y="0px"
	 viewBox="0 0 32 32" style="enable-background:new 0 0 32 32;" xml:space="preserve">
<style type="text/css">
	.st0{display:none;}
	.st1{display:inline;}
	.st2{clip-path:url(#XMLID_30_);}
	.st3{fill:#FFFFFF;}
	.st4{fill:#5E64AD;}
	.st5{fill:#DDE051;}
	.st6{fill:#845CA6;}
	.st7{fill:#6EC283;}
	.st8{fill:#EA5FA3;}
	.st9{fill:#030404;}
	.st10{fill:none;stroke:#030404;stroke-width:2;stroke-linecap:round;stroke-linejoin:round;stroke-miterlimit:10;}
</style>
<g id="Ruler" class="st0">
	<g id="XMLID_1_" class="st1">
		<defs>
			<rect id="XMLID_3_" width="32" height="32"/>
		</defs>
		<clipPath id="XMLID_30_">
			<use xlink:href="#XMLID_3_"  style="overflow:visible;"/>
		</clipPath>
		<g id="XMLID_2_" class="st2">
			<g id="XMLID_40_">
				<rect id="XMLID_5_" class="st3" width="32" height="32"/>
			</g>
			<g id="XMLID_38_">
				
					<rect id="XMLID_16_" x="-6.6" y="15.9" transform="matrix(0.7071 0.7071 -0.7071 0.7071 15.9844 -6.6651)" class="st4" width="45.3" height="0.1"/>
			</g>
			<g id="XMLID_36_">
				
					<rect id="XMLID_15_" x="15.9" y="-6.7" transform="matrix(0.7071 0.7071 -0.7071 0.7071 15.9623 -6.6118)" class="st4" width="0.1" height="45.3"/>
			</g>
			<g id="XMLID_32_">
				<path id="XMLID_12_" class="st5" d="M16,30.1C8.3,30.1,1.9,23.7,1.9,16C1.9,8.3,8.3,1.9,16,1.9c7.7,0,14.1,6.3,14.1,14.1
					C30.1,23.7,23.7,30.1,16,30.1z M16,2.1C8.3,2.1,2.1,8.3,2.1,16S8.3,29.9,16,29.9S29.9,23.7,29.9,16S23.7,2.1,16,2.1z"/>
			</g>
			<g id="XMLID_28_">
				<path id="XMLID_9_" class="st6" d="M29.1,29.1H2.9V2.9h26.1V29.1z M3.1,28.9h25.9V3.1H3.1V28.9z"/>
			</g>
			<g id="XMLID_24_">
				<path id="XMLID_6_" class="st7" d="M30.1,28.1H1.9V3.9h28.1V28.1z M2.1,27.9h27.9V4.1H2.1V27.9z"/>
			</g>
			<g id="XMLID_20_">
				<path id="XMLID_17_" class="st8" d="M28.1,30.1H3.9V1.9h24.1V30.1z M4.1,29.9h23.9V2.1H4.1V29.9z"/>
			</g>
		</g>
	</g>
</g>
<g id="Icon">
	<g id="XMLID_51_">
		<path id="XMLID_33_" class="st9" d="M8.6,26.2c-1.7,0-3.6,0-5.3-0.8c-0.1,0-1.3-0.7-1.3-1.6V9.3c0-0.2,0.1-0.5,0.2-0.6
			c1.2-1.4,3-3,5.9-3h0.4c0.5,0,1,0.4,1,1s-0.4,1-1,1H8.2c-1.6,0-2.9,0.6-4.2,2.1v13.9c0.1,0,0.1,0.1,0.2,0.1
			c1.3,0.6,2.9,0.6,4.5,0.6c0.5,0,1,0.4,1,1S9.1,26.2,8.6,26.2z"/>
	</g>
	<g id="XMLID_50_">
		<path id="XMLID_31_" class="st9" d="M7.9,26.2c-0.5,0-1-0.4-1-1s0.4-1,1-1c1.6,0,3.2,0,4.5-0.6c0,0,0,0,0.1-0.1V9.7
			c-1.4-1.5-2.6-2.1-4.2-2.1H7.9c-0.5,0-1-0.4-1-1s0.4-1,1-1h0.4c2.9,0,4.7,1.6,5.9,3c0.2,0.2,0.2,0.4,0.2,0.6v14.6
			c0,0.9-1.2,1.5-1.2,1.5C11.5,26.2,9.6,26.2,7.9,26.2z"/>
	</g>
	<g id="XMLID_48_">
		<path id="XMLID_22_" class="st10" d="M13.5,14.5"/>
	</g>
	<g id="XMLID_47_">
		<path id="XMLID_4_" class="st10" d="M13.3,19"/>
	</g>
	<g id="XMLID_21_">
		<path id="XMLID_27_" class="st9" d="M23.3,26.7c-1.9,0-3.9-0.4-5.4-1l-0.6-0.3c-1.3-0.6-2.6-1.2-3.9-1c-0.5,0.1-1-0.3-1.1-0.9
			c-0.1-0.5,0.3-1,0.9-1.1c1.8-0.2,3.4,0.5,4.9,1.2l0.6,0.2c1.3,0.6,3,0.9,4.6,0.9c0.9,0,2.7,0,3.4-0.6c0.6-0.4,0.6-2,0.7-3.1
			c0-0.3,0-0.6,0-0.9c0.1-2,0.3-4.1,0.5-6.1c0-0.2,0-0.3,0.1-0.4c0-0.2,0.1-0.8,0.1-1c0,0-0.1,0-0.1,0c-0.8,0-1.6,0.3-2.5,0.6
			c-0.5,0.2-1,0.4-1.5,0.5c-2.4,0.7-5-0.4-6.8-1.3c-0.7-0.4-1.4-0.8-2.1-1.2c-0.5-0.3-1.1-0.6-1.6-0.9l-1.7,0.9
			c-0.1,0-0.1,0.1-0.2,0.1c-2,0.6-4.1,0.7-5.9,0.4c-1.3-0.3-2.2-0.9-3.1-1.6l-0.2-0.1C2,9.8,1.9,9.2,2.2,8.8
			c0.3-0.4,0.9-0.5,1.3-0.2l0.2,0.1c0.8,0.6,1.5,1,2.4,1.3c1.5,0.2,3.2,0.1,4.9-0.4l2-1.1c0.3-0.2,0.6-0.2,0.9,0
			c0.7,0.4,1.4,0.8,2.1,1.2c0.7,0.4,1.4,0.8,2.1,1.2c1.5,0.8,3.6,1.7,5.3,1.2c0.5-0.1,0.9-0.3,1.4-0.5c1-0.4,2-0.7,3.1-0.7
			c0.2,0,0.6,0,1,0.2c1.3,0.7,1,2.3,0.9,3.1c0,0.1,0,0.2-0.1,0.3c-0.2,1.9-0.4,4-0.5,6c0,0.3,0,0.5,0,0.8c0,1.5-0.1,3.5-1.4,4.5
			C26.7,26.7,24.7,26.7,23.3,26.7z"/>
	</g>
	<g id="XMLID_45_">
		<path id="XMLID_26_" class="st9" d="M8.8,15.8c-0.5,0-0.9-0.4-1-0.9c-0.1-0.5,0.3-1,0.9-1.1c0.9-0.1,1.7-0.3,2.4-0.5
			c0.1,0,0.3-0.1,0.4-0.1c0.4-0.1,0.8-0.2,1-0.4c0.4-0.4,1-0.4,1.4,0s0.4,1,0,1.4c-0.5,0.5-1.3,0.7-1.8,0.9c-0.1,0-0.3,0.1-0.4,0.1
			c-0.8,0.2-1.7,0.4-2.7,0.5C8.8,15.8,8.8,15.8,8.8,15.8z"/>
	</g>
	<g id="XMLID_44_">
		<path id="XMLID_25_" class="st9" d="M6.1,23.3c-1.3,0-2.3-0.4-3.5-1c-0.5-0.2-0.7-0.8-0.5-1.3c0.2-0.5,0.8-0.7,1.3-0.5
			c1.4,0.7,2.1,0.9,3.3,0.8c0.5-0.1,1,0.3,1.1,0.8c0.1,0.5-0.3,1-0.8,1.1C6.6,23.3,6.3,23.3,6.1,23.3z"/>
	</g>
	<g id="XMLID_43_">
		<path id="XMLID_23_" class="st9" d="M9.2,21.6c-0.5,0-0.9-0.4-1-0.8c-0.1-0.5,0.3-1,0.8-1.1c1.4-0.2,2.7-0.6,4.1-1.1
			c0.5-0.2,1.1,0,1.3,0.5c0.2,0.5,0,1.1-0.5,1.3c-1.5,0.6-3.1,1-4.6,1.2C9.2,21.6,9.2,21.6,9.2,21.6z"/>
	</g>
</g>
</svg>
