<?xml version="1.0" encoding="utf-8"?>
<!-- Generator: Adobe Illustrator 19.0.0, SVG Export Plug-In . SVG Version: 6.00 Build 0)  -->
<svg version="1.1" xmlns="http://www.w3.org/2000/svg" xmlns:xlink="http://www.w3.org/1999/xlink" x="0px" y="0px"
	 viewBox="0 0 32 32" style="enable-background:new 0 0 32 32;" xml:space="preserve">
<style type="text/css">
	.st0{display:none;}
	.st1{display:inline;}
	.st2{clip-path:url(#XMLID_29_);}
	.st3{fill:#FFFFFF;}
	.st4{fill:#5E64AD;}
	.st5{fill:#DDE051;}
	.st6{fill:#845CA6;}
	.st7{fill:#6EC283;}
	.st8{fill:#EA5FA3;}
</style>
<g id="Ruler" class="st0">
	<g id="XMLID_1_" class="st1">
		<defs>
			<rect id="XMLID_3_" width="32" height="32"/>
		</defs>
		<clipPath id="XMLID_29_">
			<use xlink:href="#XMLID_3_"  style="overflow:visible;"/>
		</clipPath>
		<g id="XMLID_2_" class="st2">
			<g id="XMLID_40_">
				<rect id="XMLID_5_" class="st3" width="32" height="32"/>
			</g>
			<g id="XMLID_38_">
				
					<rect id="XMLID_16_" x="-6.6" y="15.9" transform="matrix(0.7071 0.7071 -0.7071 0.7071 15.9844 -6.6651)" class="st4" width="45.3" height="0.1"/>
			</g>
			<g id="XMLID_36_">
				
					<rect id="XMLID_15_" x="15.9" y="-6.7" transform="matrix(0.7071 0.7071 -0.7071 0.7071 15.9623 -6.6118)" class="st4" width="0.1" height="45.3"/>
			</g>
			<g id="XMLID_32_">
				<path id="XMLID_12_" class="st5" d="M16,30.1C8.3,30.1,1.9,23.7,1.9,16C1.9,8.3,8.3,1.9,16,1.9c7.7,0,14.1,6.3,14.1,14.1
					C30.1,23.7,23.7,30.1,16,30.1z M16,2.1C8.3,2.1,2.1,8.3,2.1,16S8.3,29.9,16,29.9S29.9,23.7,29.9,16S23.7,2.1,16,2.1z"/>
			</g>
			<g id="XMLID_28_">
				<path id="XMLID_9_" class="st6" d="M29.1,29.1H2.9V2.9h26.1V29.1z M3.1,28.9h25.9V3.1H3.1V28.9z"/>
			</g>
			<g id="XMLID_24_">
				<path id="XMLID_6_" class="st7" d="M30.1,28.1H1.9V3.9h28.1V28.1z M2.1,27.9h27.9V4.1H2.1V27.9z"/>
			</g>
			<g id="XMLID_20_">
				<path id="XMLID_17_" class="st8" d="M28.1,30.1H3.9V1.9h24.1V30.1z M4.1,29.9h23.9V2.1H4.1V29.9z"/>
			</g>
		</g>
	</g>
</g>
<g id="Icon">
	<g id="Layer_2_00000116211695224589821180000004736017576189569439_">
	</g>
	<g id="XMLID_21_">
		<path id="XMLID_22_" d="M16.2,29.8c-0.2,0-0.4-0.1-0.6-0.2l0,0.1l0-0.1c0,0,0,0,0,0l-0.1,0.1C13.1,28.4,6.6,25.2,5,19.3
			c-0.7-2.4-0.8-4.7-0.9-6.4L4,12.1L4,3c0-0.5,0.4-1,1-1h22.2c0.5,0,1,0.4,1,1v9l-0.1,0.9c-0.1,1.7-0.3,4-0.9,6.4
			c-1.6,5.9-8.1,9.1-10.5,10.4C16.5,29.7,16.3,29.8,16.2,29.8z M6,4v8L6,12.7c0.1,1.6,0.3,3.8,0.9,6c1.3,4.8,6.8,7.7,9.2,9
			c2.5-1.3,7.8-4.2,9.2-9c0.6-2.2,0.8-4.4,0.9-6l0.1-0.8l0-8H6z"/>
	</g>
	<polygon id="XMLID_4_" points="18.5,3.5 6,16 5.1,12.6 14.4,3.5 	"/>
	<polygon id="XMLID_26_" points="27,14 13.5,27.5 11,25.5 26.5,10 	"/>
</g>
</svg>
