<?xml version="1.0" encoding="utf-8"?>
<!-- Generator: Adobe Illustrator 19.0.0, SVG Export Plug-In . SVG Version: 6.00 Build 0)  -->
<svg version="1.1" xmlns="http://www.w3.org/2000/svg" xmlns:xlink="http://www.w3.org/1999/xlink" x="0px" y="0px"
	 viewBox="0 0 32 32" style="enable-background:new 0 0 32 32;" xml:space="preserve">
<style type="text/css">
	.st0{display:none;}
	.st1{display:inline;}
	.st2{clip-path:url(#XMLID_62_);}
	.st3{fill:#FFFFFF;}
	.st4{fill:#5E64AD;}
	.st5{fill:#DDE051;}
	.st6{fill:#845CA6;}
	.st7{fill:#6EC283;}
	.st8{fill:#EA5FA3;}
</style>
<g id="Ruler" class="st0">
	<g id="XMLID_1_" class="st1">
		<defs>
			<rect id="XMLID_3_" width="32" height="32"/>
		</defs>
		<clipPath id="XMLID_62_">
			<use xlink:href="#XMLID_3_"  style="overflow:visible;"/>
		</clipPath>
		<g id="XMLID_2_" class="st2">
			<g id="XMLID_40_">
				<rect id="XMLID_5_" class="st3" width="32" height="32"/>
			</g>
			<g id="XMLID_38_">
				
					<rect id="XMLID_16_" x="-6.6" y="15.9" transform="matrix(0.7071 0.7071 -0.7071 0.7071 15.9844 -6.6651)" class="st4" width="45.3" height="0.1"/>
			</g>
			<g id="XMLID_36_">
				
					<rect id="XMLID_15_" x="15.9" y="-6.7" transform="matrix(0.7071 0.7071 -0.7071 0.7071 15.9623 -6.6118)" class="st4" width="0.1" height="45.3"/>
			</g>
			<g id="XMLID_32_">
				<path id="XMLID_12_" class="st5" d="M16,30.1C8.3,30.1,1.9,23.7,1.9,16C1.9,8.3,8.3,1.9,16,1.9c7.7,0,14.1,6.3,14.1,14.1
					C30.1,23.7,23.7,30.1,16,30.1z M16,2.1C8.3,2.1,2.1,8.3,2.1,16S8.3,29.9,16,29.9S29.9,23.7,29.9,16S23.7,2.1,16,2.1z"/>
			</g>
			<g id="XMLID_28_">
				<path id="XMLID_9_" class="st6" d="M29.1,29.1H2.9V2.9h26.1V29.1z M3.1,28.9h25.9V3.1H3.1V28.9z"/>
			</g>
			<g id="XMLID_24_">
				<path id="XMLID_6_" class="st7" d="M30.1,28.1H1.9V3.9h28.1V28.1z M2.1,27.9h27.9V4.1H2.1V27.9z"/>
			</g>
			<g id="XMLID_20_">
				<path id="XMLID_17_" class="st8" d="M28.1,30.1H3.9V1.9h24.1V30.1z M4.1,29.9h23.9V2.1H4.1V29.9z"/>
			</g>
		</g>
	</g>
</g>
<g id="Icon">
	<g id="Layer_2_00000116211695224589821180000004736017576189569439_">
	</g>
	<g id="Icon_1_">
		<g id="XMLID_4_">
			<g id="XMLID_44_">
				<path id="XMLID_60_" d="M18.3,12H6.5c-0.3,0-0.5-0.2-0.6-0.4c-0.2-0.2-0.1-0.5,0.1-0.8l5.9-7.3c0.2-0.3,0.9-0.3,1.1,0l5.9,7.3
					c0.2,0.2,0.2,0.5,0.1,0.8C18.8,11.8,18.5,12,18.3,12z M8,10.6h8.8l-4.4-5.4L8,10.6z"/>
			</g>
		</g>
		<g id="XMLID_21_">
			<g id="XMLID_39_">
				<path id="XMLID_59_" d="M12.3,20.8c-0.2,0-0.5-0.2-0.6-0.3l-5.8-8.8c-0.2-0.2-0.2-0.5,0-0.7c0.2-0.2,0.4-0.4,0.6-0.4h11.8
					c0.2,0,0.5,0.2,0.6,0.4s0.1,0.5,0,0.7L13,20.5C12.8,20.6,12.6,20.8,12.3,20.8z M7.9,12l4.5,6.7L17,12H7.9z"/>
			</g>
		</g>
		<g id="XMLID_26_">
			<g id="XMLID_34_">
				<path id="XMLID_58_" d="M12.4,25.3c-0.2,0-0.5-0.2-0.6-0.3c-0.2-0.3-0.1-0.8,0.2-1l6.4-4l-6,0.3c-0.4,0-0.7-0.3-0.8-0.7
					c0-0.4,0.3-0.7,0.7-0.8l7.7-0.4l-2.5-6.8c-0.2-0.3,0-0.7,0.4-0.9l2.8-1.3c0.2-0.1,0.5-0.1,0.7,0c0.2,0.2,0.3,0.4,0.3,0.6v9.1
					l0,0l0,0l0,0l0,0l0,0c0,0.1,0,0.2,0,0.2l0,0l0,0c0,0.1-0.1,0.1-0.1,0.2l0,0l0,0l0,0l0,0l0,0l0,0l0,0l0,0l0,0l0,0l0,0l0,0l0,0
					l0,0l0,0l0,0l0,0l0,0l0,0l0,0c-0.1,0.1-0.1,0.1-0.2,0.2l0,0l0,0l0,0l0,0l0,0l0,0l0,0l0,0l0,0l0,0l0,0l0,0L12.8,25
					C12.6,25.3,12.6,25.3,12.4,25.3z M19.2,11.7l1.2,3.3v-3.9L19.2,11.7z"/>
			</g>
		</g>
		<g id="XMLID_22_">
			<g id="XMLID_29_">
				<path id="XMLID_57_" d="M12.4,25.3c-0.2,0-0.2,0-0.4-0.1l-8.7-5.5c0,0-0.1,0-0.1-0.1l0,0l0,0l0,0l0,0l0,0l0,0l0,0l0,0
					c-0.1-0.1-0.1-0.1-0.2-0.2l0,0l0,0l0,0l0,0l0,0l0,0c0-0.1-0.1-0.1-0.1-0.2l0,0l0,0c0-0.1,0-0.2,0-0.2l0,0l0,0l0,0l0,0l0,0l0,0
					V10c0-0.2,0.2-0.5,0.3-0.6c0.2-0.2,0.5-0.2,0.7,0l2.7,1.3c0.3,0.2,0.5,0.5,0.4,0.9l-2.4,6.8l7.7,0.4c0.4,0,0.7,0.3,0.7,0.7v5
					c0,0.2-0.2,0.5-0.4,0.6C12.6,25.3,12.6,25.3,12.4,25.3z M6.5,19.9l5.3,3.3v-3.1L6.5,19.9z M4.5,11.1v3.8l1.1-3.2L4.5,11.1z"/>
			</g>
		</g>
		<g id="XMLID_23_">
			<g id="XMLID_27_">
				<path id="XMLID_35_" d="M21.1,10.7c-0.2,0-0.3-0.1-0.4-0.2l-8.4-5.6l-8.2,5.6c-0.3,0.2-0.8,0.2-1-0.2C2.9,10,3,9.6,3.3,9.3
					l8.6-6c0.2-0.2,0.5-0.2,0.8,0l8.7,6c0.3,0.2,0.4,0.7,0.2,1C21.5,10.5,21.4,10.7,21.1,10.7z"/>
			</g>
		</g>
	</g>
	<g id="Icon_2_">
		<g id="XMLID_31_">
			<g id="XMLID_33_">
				<path id="XMLID_53_" d="M25.4,26c-0.2,0-0.3-0.2-0.3-0.3v-1.8c0-0.2,0.1-0.3,0.3-0.3c0.7-0.1,1.4-0.4,1.9-0.9
					c0.4-0.5,0.6-1,0.5-1.6c-0.1-1.1-1.2-2-2.3-2h0c-1.3,0-2.3,1.1-2.4,2.4c0,0.2-0.2,0.3-0.4,0.3c-0.2,0-0.3-0.2-0.3-0.4
					c0-1.7,1.4-3.1,3-3.1h0c1.5,0,2.8,1.2,3,2.6c0.1,0.7-0.2,1.5-0.7,2.1s-1.2,1-2,1.2v1.6C25.7,25.8,25.6,26,25.4,26z"/>
				<path id="XMLID_54_" d="M25.4,26.4c-0.4,0-0.7-0.3-0.7-0.7v-1.8c0-0.4,0.3-0.7,0.7-0.7c0.6-0.1,1.2-0.3,1.6-0.8
					c0.3-0.4,0.5-0.9,0.4-1.3c-0.1-0.9-1-1.7-2-1.7c-1.1,0-2,0.9-2,2c0,0.4-0.3,0.7-0.7,0.7c-0.4,0-0.7-0.3-0.7-0.7
					c0-1.9,1.6-3.5,3.4-3.5c1.8,0,3.3,1.3,3.4,3c0.1,0.9-0.2,1.7-0.8,2.4c-0.5,0.6-1.1,1-1.9,1.2v1.2C26.1,26.1,25.8,26.4,25.4,26.4
					z"/>
			</g>
		</g>
		<g id="XMLID_25_">
			<g id="XMLID_30_">
				<circle id="XMLID_45_" cx="25.4" cy="27.8" r="0.5"/>
				<path id="XMLID_46_" d="M25.4,28.7c-0.5,0-0.9-0.4-0.9-0.9c0-0.5,0.4-0.9,0.9-0.9c0.5,0,0.9,0.4,0.9,0.9
					C26.3,28.3,25.9,28.7,25.4,28.7z M25.4,27.7c-0.1,0-0.1,0.1-0.1,0.1c0,0.1,0.3,0.1,0.3,0C25.5,27.8,25.5,27.7,25.4,27.7z"/>
			</g>
		</g>
	</g>
</g>
</svg>
