<?xml version="1.0" encoding="utf-8"?>
<!-- Generator: Adobe Illustrator 19.0.0, SVG Export Plug-In . SVG Version: 6.00 Build 0)  -->
<svg version="1.1" xmlns="http://www.w3.org/2000/svg" xmlns:xlink="http://www.w3.org/1999/xlink" x="0px" y="0px"
	 viewBox="0 0 32 32" style="enable-background:new 0 0 32 32;" xml:space="preserve">
<style type="text/css">
	.st0{display:none;}
	.st1{display:inline;}
	.st2{clip-path:url(#XMLID_41_);}
	.st3{fill:#FFFFFF;}
	.st4{fill:#5E64AD;}
	.st5{fill:#DDE051;}
	.st6{fill:#845CA6;}
	.st7{fill:#6EC283;}
	.st8{fill:#EA5FA3;}
</style>
<g id="Ruler" class="st0">
	<g id="XMLID_1_" class="st1">
		<defs>
			<rect id="XMLID_3_" width="32" height="32"/>
		</defs>
		<clipPath id="XMLID_41_">
			<use xlink:href="#XMLID_3_"  style="overflow:visible;"/>
		</clipPath>
		<g id="XMLID_2_" class="st2">
			<g id="XMLID_40_">
				<rect id="XMLID_5_" class="st3" width="32" height="32"/>
			</g>
			<g id="XMLID_38_">
				
					<rect id="XMLID_16_" x="-6.6" y="15.9" transform="matrix(0.7071 0.7071 -0.7071 0.7071 15.9844 -6.6651)" class="st4" width="45.3" height="0.1"/>
			</g>
			<g id="XMLID_36_">
				
					<rect id="XMLID_15_" x="15.9" y="-6.7" transform="matrix(0.7071 0.7071 -0.7071 0.7071 15.9623 -6.6118)" class="st4" width="0.1" height="45.3"/>
			</g>
			<g id="XMLID_32_">
				<path id="XMLID_12_" class="st5" d="M16,30.1C8.3,30.1,1.9,23.7,1.9,16C1.9,8.3,8.3,1.9,16,1.9c7.7,0,14.1,6.3,14.1,14.1
					C30.1,23.7,23.7,30.1,16,30.1z M16,2.1C8.3,2.1,2.1,8.3,2.1,16S8.3,29.9,16,29.9S29.9,23.7,29.9,16S23.7,2.1,16,2.1z"/>
			</g>
			<g id="XMLID_28_">
				<path id="XMLID_9_" class="st6" d="M29.1,29.1H2.9V2.9h26.1V29.1z M3.1,28.9h25.9V3.1H3.1V28.9z"/>
			</g>
			<g id="XMLID_24_">
				<path id="XMLID_6_" class="st7" d="M30.1,28.1H1.9V3.9h28.1V28.1z M2.1,27.9h27.9V4.1H2.1V27.9z"/>
			</g>
			<g id="XMLID_20_">
				<path id="XMLID_17_" class="st8" d="M28.1,30.1H3.9V1.9h24.1V30.1z M4.1,29.9h23.9V2.1H4.1V29.9z"/>
			</g>
		</g>
	</g>
</g>
<g id="Icon">
	<g id="XMLID_4_">
		<path id="XMLID_35_" d="M27.1,29.8H4.9c-0.5,0-0.9-0.4-0.9-0.9V3.1c0-0.5,0.4-0.9,0.9-0.9h22.2c0.5,0,0.9,0.4,0.9,0.9v25.8
			C28,29.4,27.6,29.8,27.1,29.8z M5.8,28h20.3V4H5.8V28z"/>
	</g>
	<g id="XMLID_21_">
		<path id="XMLID_31_" d="M27.1,12.3h-8.3c-0.5,0-0.9-0.4-0.9-0.9V3.1c0-0.5,0.4-0.9,0.9-0.9h8.3c0.5,0,0.9,0.4,0.9,0.9v8.3
			C28,11.9,27.6,12.3,27.1,12.3z M19.7,10.5h6.5V4h-6.5V10.5z"/>
	</g>
	<g id="XMLID_23_">
		<path id="XMLID_30_" d="M15.1,11.4H8.6c-0.5,0-0.9-0.4-0.9-0.9s0.4-0.9,0.9-0.9h6.4c0.5,0,0.9,0.4,0.9,0.9S15.6,11.4,15.1,11.4z"
			/>
	</g>
	<g id="XMLID_22_">
		<path id="XMLID_29_" d="M23.3,17.8H8.7c-0.5,0-1-0.4-1-0.9c0-0.5,0.4-0.9,1-0.9h14.6c0.5,0,1,0.4,1,0.9
			C24.3,17.4,23.9,17.8,23.3,17.8z"/>
	</g>
	<g id="XMLID_25_">
		<path id="XMLID_27_" d="M23.3,24.3H8.7c-0.5,0-1-0.4-1-0.9c0-0.5,0.4-0.9,1-0.9h14.6c0.5,0,1,0.4,1,0.9
			C24.3,23.9,23.8,24.3,23.3,24.3z"/>
	</g>
</g>
</svg>
